<?xml version="1.0" standalone="no"?>
<!DOCTYPE svg PUBLIC "-//W3C//DTD SVG 20010904//EN"
 "http://www.w3.org/TR/2001/REC-SVG-20010904/DTD/svg10.dtd">
<svg version="1.0" xmlns="http://www.w3.org/2000/svg"
 width="7730.000000pt" height="7730.000000pt" viewBox="0 0 7730.000000 7730.000000"
 preserveAspectRatio="xMidYMid meet">

<g transform="translate(0.000000,7730.000000) scale(0.100000,-0.100000)"
fill="#000000" stroke="none">
<path d="M27316 67809 c-189 -17 -428 -75 -608 -145 -812 -318 -1366 -1087
-1414 -1966 -4 -62 3 -504 15 -983 63 -2522 71 -2876 71 -2947 0 -43 3 -78 8
-78 4 0 137 208 296 463 851 1360 1541 2452 1577 2498 35 45 106 91 185 121
l59 23 1872 3 1872 2 -16 -37 c-8 -21 -31 -68 -49 -105 -19 -37 -34 -71 -34
-76 0 -11 -77 -175 -1877 -3962 -816 -1719 -1630 -3419 -1808 -3777 -270 -543
-321 -653 -305 -653 20 0 20 -14 20 -833 0 -511 -4 -865 -10 -917 -44 -359
-211 -734 -458 -1030 -248 -297 -610 -551 -1005 -706 l-99 -38 6 -226 c3 -124
8 -301 11 -395 3 -93 7 -269 10 -390 3 -121 7 -303 10 -405 3 -102 7 -282 10
-400 3 -118 7 -296 10 -395 3 -99 7 -277 10 -395 7 -302 14 -562 21 -797 l6
-203 -29 0 c-15 1 -430 43 -922 94 l-893 93 -1987 -233 c-1092 -128 -2065
-242 -2161 -254 -261 -31 -573 -68 -770 -90 -238 -28 -255 -30 -335 -40 -38
-5 -99 -12 -135 -16 -36 -3 -72 -8 -80 -9 -8 -1 -44 -6 -80 -10 -36 -3 -76 -8
-90 -10 -14 -2 -104 -13 -200 -24 -175 -20 -639 -74 -780 -91 -112 -13 -832
-98 -930 -109 -98 -11 -416 -49 -475 -56 -22 -3 -96 -11 -165 -19 -847 -99
-1552 -182 -1715 -201 -66 -8 -1024 -121 -2130 -250 -1105 -129 -2025 -237
-2042 -240 l-33 -6 0 -17589 0 -17589 63 5 c104 9 5391 333 5393 331 1 -1 19
-117 39 -257 73 -512 171 -1062 202 -1133 37 -84 99 -119 247 -138 225 -27
497 7 572 73 64 56 65 64 75 367 5 152 13 473 18 714 5 241 11 440 14 443 4 4
1217 82 1486 96 l64 3 109 -429 c95 -379 248 -955 293 -1104 31 -102 111 -163
225 -167 224 -10 701 90 794 167 61 50 61 69 6 331 -58 274 -115 594 -164 912
-54 356 -54 355 -43 362 5 3 1063 71 2351 151 l2341 145 710 -48 c391 -26 728
-49 750 -51 22 -2 72 -5 110 -8 501 -33 1191 -80 1193 -81 1 -1 11 -348 22
-771 11 -423 25 -812 30 -864 93 -849 742 -1580 1609 -1812 254 -67 284 -70
856 -75 688 -6 28644 54 28803 62 545 26 1072 258 1457 640 318 316 520 710
590 1150 21 135 23 288 215 19250 22 2173 51 5062 65 6420 28 2727 66 6452
121 11915 20 1977 37 3596 39 3598 1 1 58 -11 126 -28 261 -64 368 -75 744
-75 305 0 355 3 484 23 944 149 1674 684 1974 1447 40 103 78 239 104 370 15
80 18 187 23 965 l5 875 33 3 c17 2 32 5 32 8 0 2 -104 163 -232 356 -786
1198 -1552 2395 -2788 4363 -211 336 -392 624 -402 641 -17 29 -17 93 2 1965
21 1988 21 2038 -16 2254 -166 985 -978 1758 -1973 1880 -97 12 -2489 25
-14636 84 -7986 38 -14959 72 -15495 74 -553 3 -1018 1 -1074 -4z m11704
-3034 c0 -55 -1360 -8580 -1369 -8583 -15 -5 -16 -1545 -1 -1693 63 -623 408
-1166 978 -1543 636 -420 1489 -566 2317 -395 587 122 1141 449 1484 879 209
261 335 526 408 855 l27 120 3 888 c4 873 4 887 23 887 20 0 20 36 20 4295 l0
4295 1942 -2 1942 -3 24 -145 c155 -969 1332 -8409 1332 -8422 0 -13 -8 -18
-25 -18 l-25 0 0 -805 c0 -498 4 -843 11 -903 48 -445 254 -860 598 -1202 197
-196 410 -345 686 -480 310 -152 613 -241 976 -287 165 -20 605 -23 754 -4
416 51 747 151 1075 322 610 320 1030 840 1164 1440 44 199 47 281 44 1129
l-3 795 -193 600 c-230 716 -365 1141 -1532 4825 -70 223 -185 583 -253 800
-411 1297 -654 2062 -692 2185 -24 77 -47 148 -50 158 -7 16 90 17 1937 17
l1943 0 107 -217 c120 -245 185 -382 783 -1663 1257 -2692 1804 -3843 2460
-5180 126 -256 342 -703 481 -995 248 -523 252 -530 283 -533 l31 -3 0 -829
c0 -695 -3 -847 -16 -941 -83 -602 -448 -1133 -1024 -1493 -57 -36 -161 -93
-231 -128 l-127 -62 -6 -541 c-4 -297 -54 -7342 -111 -15655 -57 -8313 -107
-15452 -110 -15865 -9 -1343 -15 -2183 -20 -3145 -3 -520 -10 -1003 -16 -1075
-28 -365 -149 -689 -376 -1008 -73 -102 -271 -308 -383 -397 -366 -291 -820
-459 -1310 -484 -58 -3 -5338 -13 -11734 -23 -12268 -18 -11743 -19 -11965 27
-933 191 -1612 876 -1746 1760 -11 73 -52 1816 -179 7630 -91 4144 -167 7643
-171 7775 -8 334 -24 1065 -30 1400 -3 154 -7 359 -10 455 -2 96 -7 290 -10
430 -3 140 -7 345 -10 455 -3 110 -7 333 -10 495 -3 162 -7 390 -10 505 -3
116 -7 325 -10 465 -3 140 -7 341 -10 445 -3 105 -7 305 -10 445 -3 140 -82
3754 -175 8032 -94 4277 -170 7780 -170 7786 0 5 48 -6 108 -23 240 -73 446
-109 725 -127 305 -19 659 11 935 78 657 160 1200 527 1525 1031 104 160 201
381 250 568 59 225 59 225 61 1155 l1 855 40 5 40 5 1241 3920 c684 2156 1296
4088 1361 4292 l118 373 1943 0 c1068 0 1942 -2 1942 -5z m-13301 -16741 c8
-9 286 -11077 280 -11125 -3 -22 -153 166 -919 1153 -503 649 -926 1185 -940
1193 -71 37 -1522 622 -2180 880 -532 208 -530 207 -690 268 -1613 617 -2866
1059 -4120 1455 -2368 748 -4498 1213 -6177 1349 l-223 18 0 1705 0 1705 4178
489 c2297 269 4382 512 4632 542 1050 123 2229 261 3200 374 569 66 1050 123
1068 126 18 3 32 11 32 19 0 12 28 15 148 17 126 3 258 -8 925 -78 428 -44
781 -85 786 -90z m-14594 -5435 c1613 -153 3548 -581 5785 -1280 648 -203
1521 -493 2020 -672 1543 -552 2715 -1003 4738 -1824 l194 -78 161 -208 c89
-115 421 -543 738 -950 317 -408 573 -743 569 -745 -6 -2 -321 25 -2185 189
-440 39 -1353 119 -2030 179 l-1230 108 -70 -61 c-38 -34 -77 -67 -86 -74 -15
-12 -19 -4 -44 74 -88 284 -263 443 -459 419 -114 -15 -271 -120 -385 -260
-81 -98 -99 -99 -175 -4 -109 133 -255 226 -405 255 -151 30 -309 -9 -474
-117 -166 -110 -267 -281 -267 -454 0 -43 -5 -61 -21 -77 -19 -19 -27 -20 -82
-12 -34 4 -116 8 -182 8 -196 -1 -333 -51 -460 -167 -155 -142 -257 -378 -257
-593 0 -112 26 -200 82 -275 61 -84 65 -95 48 -122 -8 -13 -33 -29 -54 -36
-112 -39 -196 -130 -229 -246 -24 -83 -17 -253 12 -318 43 -94 149 -171 271
-197 29 -6 113 -11 185 -11 l133 0 59 -60 c59 -60 59 -60 40 -79 -11 -11
-1435 -1226 -3165 -2701 l-3145 -2683 -7 4334 c-4 2384 -10 4405 -13 4492 -4
107 -3 157 5 157 7 0 10 630 10 2061 l0 2061 83 -7 c45 -3 177 -15 292 -26z
m16639 -4212 c35 -61 41 -105 21 -173 -16 -56 -27 -69 -247 -291 -174 -175
-229 -236 -224 -249 4 -9 36 -66 72 -126 144 -238 190 -376 182 -543 -7 -129
-29 -194 -125 -360 -247 -426 -367 -555 -575 -616 l-77 -23 -11 -55 c-27 -133
-113 -469 -160 -626 -122 -399 -269 -774 -468 -1188 l-75 -158 62 -2507 c34
-1379 64 -2581 68 -2671 l6 -164 -204 7 c-1279 43 -2119 91 -3054 176 -181 17
-344 33 -362 36 l-32 6 145 282 c80 154 274 538 431 851 309 617 311 622 266
683 -41 55 -63 60 -288 73 -234 13 -954 7 -1270 -11 -705 -39 -1324 -87 -2060
-160 -611 -61 -960 -102 -992 -117 -17 -8 -39 -26 -48 -40 -16 -23 -565 -1920
-565 -1950 0 -9 15 -13 48 -13 138 0 543 -97 965 -231 176 -56 171 -51 138
-139 -28 -74 -67 -119 -125 -146 -55 -26 -135 -32 -194 -15 -17 5 -32 7 -32 3
1 -4 39 -36 86 -72 47 -36 94 -72 105 -80 19 -15 19 -18 4 -60 -42 -120 -153
-155 -300 -94 -11 4 9 -25 45 -65 36 -39 82 -91 102 -115 l38 -43 -35 -41
c-74 -86 -183 -106 -291 -53 -32 16 -69 32 -81 35 -43 13 -95 -24 -252 -178
-144 -140 -166 -158 -252 -200 -115 -57 -225 -80 -344 -72 l-80 6 -163 -573
c-180 -633 -176 -611 -112 -672 l31 -30 227 -7 c125 -4 832 -12 1571 -17 1185
-9 1347 -8 1373 5 34 17 121 133 275 364 321 483 726 1187 1294 2247 30 57 49
82 59 79 8 -3 45 -7 83 -11 37 -4 67 -8 67 -11 0 -5 -3701 -6638 -3708 -6644
-2 -3 -2 294 1 660 l6 665 46 584 c24 322 43 586 42 588 -2 2 -12 -42 -22 -98
-10 -55 -23 -106 -29 -114 -6 -8 -87 -37 -181 -65 -465 -141 -1012 -254 -1470
-305 -267 -29 -361 -35 -650 -41 -317 -7 -564 4 -830 37 -168 21 -523 89 -592
113 l-40 14 -12 -81 c-93 -650 -165 -1417 -206 -2187 -35 -679 -40 -916 -40
-1952 l0 -1047 -35 -16 c-34 -17 -1353 -610 -1655 -745 -82 -37 -632 -283
-1222 -548 -590 -265 -1075 -482 -1078 -482 -3 0 -5 1563 -5 3474 0 2306 -3
3477 -10 3481 -6 4 -10 162 -10 441 0 288 3 433 10 429 7 -4 10 723 10 2172
l0 2179 1726 1472 1725 1472 81 -95 80 -95 116 103 c65 56 159 138 210 181
l92 77 -81 91 -81 90 23 23 c67 63 2879 2455 2887 2455 5 0 36 -16 68 -36 141
-84 315 -152 455 -176 62 -11 70 -10 88 6 11 10 23 26 26 35 3 9 -23 102 -58
206 l-63 189 -80 17 c-250 54 -394 180 -394 347 0 112 44 162 145 162 75 0
145 -20 250 -71 43 -21 87 -39 97 -39 23 0 68 43 68 66 0 9 -22 53 -49 98 -72
119 -117 213 -155 323 -18 54 -37 106 -41 115 -11 28 45 73 133 107 86 33 140
47 462 125 380 92 671 196 850 302 l91 53 32 -69 c18 -38 35 -69 40 -70 4 0
129 104 277 230 l269 231 1653 -146 c909 -80 2252 -197 2983 -262 732 -64
1334 -119 1338 -123 5 -4 11 -124 14 -266 3 -143 8 -272 12 -288 6 -25 14 -12
83 130 69 143 168 408 168 450 0 9 9 18 20 21 11 3 20 9 20 14 0 5 -7 98 -16
207 -21 259 -16 478 13 542 67 147 643 766 1113 1195 250 229 281 256 291 249
5 -3 20 -24 33 -47z m-5234 -7977 l0 -50 -67 0 c-119 0 -727 -20 -1088 -35
-879 -38 -1597 -99 -1933 -164 -154 -30 -231 -80 -279 -181 -9 -19 -77 -240
-150 -490 -74 -250 -136 -456 -138 -459 -3 -2 -25 2 -50 9 -35 10 -45 17 -42
29 102 362 277 930 299 973 38 72 111 142 184 175 195 89 1190 181 2429 223
171 6 344 12 385 13 41 2 159 4 263 5 l187 2 0 -50z m-1505 -785 c239 -114
294 -427 108 -616 -183 -187 -499 -137 -615 98 -40 83 -50 201 -24 285 36 113
127 208 238 248 81 30 213 23 293 -15z m2240 -1425 c723 -61 1590 -108 2755
-148 l205 -7 69 -2755 69 -2755 -29 -105 c-15 -58 -27 -117 -26 -132 1 -24 -1
-26 -31 -22 -26 4 -1853 215 -2207 255 -88 10 -99 9 -145 -11 -27 -12 -1207
-541 -2621 -1176 -1414 -635 -2574 -1154 -2577 -1154 -4 0 -6 78 -5 173 l3
173 2144 3842 c1179 2113 2149 3842 2155 3842 6 0 115 -9 241 -20z m1984
-6400 c618 -71 1127 -133 1130 -136 3 -3 16 -398 27 -877 12 -480 25 -973 28
-1097 9 -334 12 -468 81 -3225 35 -1397 61 -2542 59 -2544 -3 -3 -521 31
-1152 74 -653 45 -1201 79 -1272 78 -69 -1 -1244 -71 -2612 -155 -1368 -84
-2490 -150 -2493 -146 -8 7 -66 585 -99 988 -69 822 -123 1751 -161 2725 -33
880 -61 2053 -49 2065 8 8 781 357 2409 1087 2082 935 2732 1227 2805 1262 71
34 92 40 130 36 25 -3 551 -63 1169 -135z m-8449 -2214 c11 -132 20 -243 20
-247 0 -6 -103 -59 -114 -59 -3 0 5 70 41 365 15 127 29 219 30 205 2 -14 12
-133 23 -264z m102 -1027 c167 -1460 443 -3078 798 -4682 23 -104 40 -190 38
-191 -6 -5 -1343 -84 -1347 -80 -5 5 14 703 34 1299 44 1243 97 2239 170 3195
35 451 41 514 51 518 5 2 56 25 114 52 58 26 109 47 115 46 5 -2 18 -72 27
-157z m-2128 -821 c3 -18 8 -112 11 -208 33 -967 165 -2648 298 -3803 16 -137
20 -200 13 -203 -6 -2 -967 -62 -2136 -133 -1169 -72 -2144 -132 -2167 -134
l-43 -5 1 1512 1 1511 45 -132 45 -133 31 14 c47 20 2376 1066 3187 1432 382
172 698 313 702 313 4 1 9 -14 12 -31z"/>
<path d="M42200 48634 c-25 -2 -121 -8 -215 -15 -887 -57 -1859 -276 -2694
-606 -960 -379 -1794 -888 -2576 -1572 -187 -163 -595 -577 -767 -779 -1033
-1206 -1649 -2619 -1803 -4132 -40 -396 -44 -884 -10 -1170 145 -1230 747
-2954 1837 -5270 366 -777 948 -1936 1323 -2635 18 -33 56 -105 85 -160 1003
-1897 2419 -4349 3907 -6765 485 -787 495 -803 609 -909 136 -128 296 -215
493 -269 92 -26 106 -27 346 -26 605 2 1022 130 1263 389 78 84 172 233 837
1320 1560 2553 2954 5002 4030 7085 240 465 759 1510 928 1870 27 58 70 148
94 200 107 227 224 484 463 1020 182 409 492 1174 648 1600 375 1023 598 1860
678 2540 21 184 29 621 15 855 -101 1664 -714 3157 -1836 4470 -162 189 -624
652 -815 817 -1345 1159 -2992 1877 -4785 2088 -423 49 -504 53 -1275 55 -404
1 -755 1 -780 -1z m1000 -2149 c1085 -97 2078 -448 2983 -1054 1283 -859 2224
-2185 2606 -3671 150 -585 210 -1100 198 -1715 -8 -399 -34 -661 -102 -1035
-267 -1458 -1058 -2791 -2220 -3745 -1462 -1200 -3371 -1679 -5241 -1315 -252
49 -499 115 -769 205 -921 306 -1730 800 -2424 1480 -600 587 -1050 1235
-1384 1990 -322 730 -492 1474 -528 2313 -9 226 -9 246 8 280 12 24 32 44 57
56 36 17 43 18 79 5 77 -27 81 -40 89 -302 44 -1523 662 -2972 1733 -4066 250
-255 436 -420 698 -617 1849 -1396 4324 -1623 6397 -585 1428 715 2530 1971
3045 3471 337 982 420 2005 245 3025 -346 2025 -1708 3752 -3605 4573 -1217
527 -2593 639 -3896 317 -444 -109 -833 -253 -1249 -461 -550 -275 -1006 -596
-1468 -1032 -210 -197 -511 -534 -665 -744 -54 -72 -86 -92 -141 -85 -89 12
-126 111 -70 192 162 239 624 740 909 986 797 689 1683 1146 2681 1384 376 90
737 140 1219 169 130 8 649 -4 815 -19z m0 -835 c1276 -90 2440 -614 3334
-1504 803 -799 1316 -1810 1485 -2927 53 -349 71 -864 42 -1194 -59 -677 -227
-1284 -521 -1880 -1004 -2040 -3185 -3185 -5445 -2859 -278 40 -602 117 -882
210 -430 143 -914 382 -1277 630 -451 310 -869 702 -1203 1131 -464 596 -808
1334 -968 2077 -90 419 -110 621 -110 1111 0 418 7 519 56 823 133 836 466
1621 979 2307 275 367 676 769 1040 1041 809 605 1777 966 2770 1033 181 12
532 12 700 1z"/>
<path d="M42783 23278 c-526 -31 -1028 -321 -1326 -766 -129 -192 -231 -445
-273 -677 -22 -125 -26 -451 -6 -565 34 -190 80 -336 158 -496 233 -480 687
-836 1206 -944 597 -124 1199 61 1618 497 249 259 401 554 466 908 29 153 26
491 -5 635 -102 480 -366 870 -766 1133 -310 204 -678 298 -1072 275z"/>
<path d="M18621 10904 c-33 -209 -81 -559 -101 -737 -19 -164 -21 -208 -11
-255 25 -126 105 -227 226 -283 73 -35 47 -33 835 -69 868 -40 1211 -51 1732
-57 416 -5 533 -3 558 7 75 31 94 129 41 212 -16 25 -44 57 -62 71 -26 19
-1899 908 -2347 1114 l-74 33 8 -32 c19 -80 15 -90 -56 -125 -172 -87 -392
-89 -632 -6 l-77 26 -6 66 c-11 115 -19 123 -34 35z"/>
<path d="M15568 10813 c-51 -112 -111 -279 -157 -439 -52 -179 -129 -495 -137
-559 -11 -92 26 -174 103 -228 34 -25 58 -31 149 -43 347 -43 905 -68 978 -44
82 27 156 129 156 217 0 61 -36 262 -71 392 -73 276 -219 556 -382 736 -5 6
-7 -24 -5 -75 l3 -84 -60 -14 c-33 -7 -114 -14 -180 -14 -125 -2 -195 11 -276
53 -34 17 -39 24 -49 76 -18 96 -20 103 -29 103 -4 0 -24 -35 -43 -77z"/>
</g>
</svg>
